<?xml version="1.0" standalone="no"?>
<!DOCTYPE svg PUBLIC "-//W3C//DTD SVG 20010904//EN"
 "http://www.w3.org/TR/2001/REC-SVG-20010904/DTD/svg10.dtd">
<svg version="1.0" xmlns="http://www.w3.org/2000/svg"
 width="756.000000pt" height="700.000000pt" viewBox="0 0 756.000000 700.000000"
 preserveAspectRatio="xMidYMid meet">

<g transform="translate(0.000000,700.000000) scale(0.100000,-0.100000)"
fill="#000000" stroke="none">
<path d="M7085 5883 c-16 -3 -97 -23 -180 -45 -82 -22 -206 -55 -275 -73 -118
-32 -281 -75 -555 -150 -66 -18 -198 -53 -294 -79 -96 -26 -187 -54 -203 -62
-53 -27 -68 -80 -67 -234 0 -77 5 -150 12 -170 24 -71 125 -88 285 -50 46 11
85 20 86 20 2 0 -87 -179 -197 -398 l-201 -398 -4 -140 c-2 -76 1 -158 6 -181
9 -40 9 -43 -12 -43 -11 0 -63 -11 -115 -25 -52 -14 -96 -24 -98 -21 -2 2 9
31 26 65 75 147 112 376 93 562 -16 145 -44 247 -101 364 -125 253 -351 438
-626 512 -89 24 -118 26 -275 27 -137 1 -192 -3 -255 -18 -111 -25 -218 -68
-303 -120 l-72 -45 0 71 c0 98 -18 192 -44 231 -38 56 -76 69 -196 64 -87 -4
-127 -11 -238 -46 -131 -40 -134 -41 -165 -24 -45 25 -180 24 -224 0 -66 -36
-68 -45 -70 -412 l-1 -330 -34 -8 c-123 -29 -165 -53 -196 -112 -8 -16 -52
-133 -98 -260 -190 -532 -218 -606 -225 -593 -6 11 -491 1171 -633 1513 -53
129 -74 145 -190 145 -45 0 -99 -5 -121 -11 -22 -5 -96 -25 -165 -44 -69 -19
-265 -72 -437 -119 -172 -47 -321 -90 -333 -96 -39 -21 -52 -56 -52 -139 0
-74 4 -86 65 -227 36 -82 118 -270 182 -419 167 -386 242 -559 280 -645 18
-41 69 -158 113 -260 121 -280 306 -707 377 -870 35 -80 100 -230 145 -335 45
-104 97 -224 115 -265 18 -41 61 -139 95 -216 33 -78 71 -151 83 -162 49 -47
191 -47 232 -2 16 18 77 182 432 1155 58 160 139 382 180 495 41 113 88 241
103 285 16 44 85 235 155 425 206 562 205 558 205 644 0 66 3 77 22 90 13 9
43 16 69 16 25 0 81 9 125 21 43 12 89 23 101 26 l23 5 -20 -58 c-39 -113 -54
-213 -54 -359 0 -162 13 -231 54 -275 l28 -30 -23 0 c-46 0 -75 -50 -217 -380
-77 -179 -233 -539 -345 -800 -307 -710 -277 -630 -277 -740 0 -105 10 -134
63 -184 17 -17 31 -34 31 -39 0 -5 -25 -53 -55 -107 -100 -178 -135 -304 -135
-483 0 -243 68 -428 213 -583 155 -166 342 -250 582 -261 275 -12 487 67 657
245 88 92 71 64 529 876 240 425 369 645 401 680 89 99 220 139 323 99 28 -11
133 -67 235 -125 102 -57 201 -110 219 -116 54 -19 199 -15 247 7 98 45 141
187 99 327 -17 57 -46 88 -129 138 l-60 36 50 0 c44 0 166 30 349 85 28 9 75
20 105 25 43 8 61 17 85 43 27 30 33 33 60 25 46 -14 167 -1 248 26 40 13 95
27 122 30 28 4 95 21 150 37 174 51 199 57 256 64 76 8 139 49 168 107 43 89
19 317 -38 372 -26 25 -28 31 -20 65 5 22 4 63 -1 96 -8 48 -19 70 -71 138
-34 44 -62 85 -62 92 0 7 33 70 74 141 l74 128 0 82 c0 71 -3 86 -22 106 -20
21 -22 35 -25 180 l-3 158 -33 32 c-31 32 -35 33 -115 32 -53 0 -110 -8 -161
-22 -43 -13 -80 -21 -82 -19 -3 2 85 179 193 393 l198 389 3 166 c4 181 -4
223 -50 253 -26 17 -123 28 -173 19z m162 -39 c36 -23 45 -76 41 -239 l-3
-150 -203 -400 c-111 -220 -202 -406 -202 -413 0 -14 8 -12 130 21 42 12 107
21 148 21 66 0 75 -2 100 -27 27 -27 27 -28 30 -185 3 -145 5 -159 25 -180 19
-20 22 -35 22 -96 -1 -72 -1 -74 -79 -210 -45 -79 -76 -142 -72 -151 3 -9 33
-50 66 -93 68 -88 86 -146 69 -222 -9 -42 -8 -45 20 -72 58 -54 82 -268 40
-355 -26 -54 -83 -89 -159 -98 -30 -4 -75 -13 -100 -20 -152 -46 -261 -75
-305 -81 -27 -3 -81 -17 -120 -30 -96 -31 -183 -40 -242 -23 -40 11 -47 11
-52 -2 -12 -36 -57 -66 -111 -73 -30 -4 -75 -14 -100 -22 -163 -52 -299 -84
-357 -84 -84 0 -82 -15 10 -67 111 -64 134 -96 144 -197 11 -117 -26 -203
-101 -237 -48 -22 -173 -26 -227 -7 -19 6 -121 60 -227 120 -106 60 -213 116
-238 125 -65 22 -155 13 -228 -23 -102 -50 -138 -101 -405 -575 -539 -958
-550 -976 -628 -1059 -167 -178 -384 -260 -648 -247 -224 12 -388 82 -541 232
-159 157 -234 345 -234 592 0 171 36 296 141 484 l62 111 -41 41 c-22 23 -44
51 -50 62 -17 35 -24 121 -13 178 6 31 71 197 145 369 75 172 243 563 375 868
132 305 248 565 258 576 11 12 38 25 62 29 l43 7 -40 38 c-54 52 -67 108 -66
280 1 146 17 242 60 362 14 38 23 72 20 76 -4 3 -48 -7 -99 -22 -50 -15 -125
-30 -166 -33 -109 -9 -122 -23 -125 -138 -3 -84 -7 -102 -75 -285 -40 -107
-97 -260 -126 -340 -177 -490 -313 -862 -355 -975 -26 -71 -64 -175 -83 -230
-20 -55 -57 -156 -82 -225 -26 -69 -59 -161 -75 -205 -15 -44 -51 -143 -80
-220 -28 -77 -79 -216 -112 -310 -34 -93 -68 -178 -76 -187 -31 -37 -156 -42
-198 -7 -18 15 -50 76 -87 164 -13 33 -57 134 -97 225 -39 91 -105 242 -145
335 -40 94 -106 244 -145 335 -40 91 -91 210 -115 265 -23 55 -89 206 -145
335 -56 129 -116 267 -132 305 -16 39 -45 104 -63 145 -18 41 -115 264 -215
495 -100 231 -211 487 -247 568 -58 134 -64 155 -65 217 0 79 14 110 59 128
32 13 449 127 868 238 53 14 119 24 160 24 104 0 122 -15 172 -136 22 -55 102
-245 177 -424 74 -179 211 -507 304 -730 93 -223 173 -405 178 -405 4 0 14 16
21 35 7 19 69 193 138 385 199 557 187 531 277 558 29 8 73 21 98 29 44 13 45
14 40 48 -3 19 -5 166 -5 325 0 320 4 343 59 373 44 23 150 22 203 -2 l42 -18
143 43 c223 68 357 66 404 -6 25 -39 44 -136 44 -232 0 -45 4 -84 9 -87 5 -3
39 14 76 39 84 55 187 98 302 127 74 19 114 22 258 22 150 0 181 -4 265 -26
408 -110 674 -426 721 -854 21 -195 -17 -409 -102 -577 -22 -44 -38 -82 -35
-84 2 -3 58 9 123 25 65 17 129 32 143 34 20 2 24 8 22 28 -11 85 -12 264 -3
315 11 62 38 119 285 603 71 139 127 255 124 257 -3 3 -52 -6 -109 -20 -169
-41 -255 -30 -278 35 -12 35 -15 246 -5 299 14 69 36 79 322 156 123 33 183
49 520 139 781 211 720 196 797 189 28 -2 60 -11 72 -19z"/>
<path d="M7125 5750 c-16 -4 -68 -18 -115 -29 -47 -12 -121 -32 -165 -46 -44
-13 -118 -33 -165 -45 -47 -11 -105 -27 -130 -35 -25 -9 -83 -24 -130 -35 -47
-11 -114 -29 -150 -39 -36 -11 -92 -26 -125 -35 -33 -9 -103 -27 -155 -42 -52
-14 -122 -32 -155 -41 -33 -8 -71 -19 -85 -24 -14 -4 -44 -13 -67 -19 l-43
-11 0 -108 c0 -59 2 -110 5 -113 3 -2 31 3 62 13 96 29 385 107 426 114 20 4
37 4 37 1 0 -7 -290 -581 -451 -891 l-82 -160 -6 -133 c-5 -115 -4 -132 9
-129 45 13 187 52 270 74 52 13 133 35 180 47 47 13 146 40 220 59 157 42 316
85 450 121 52 14 121 32 153 40 33 9 73 20 90 25 18 6 58 17 90 26 61 18 67
24 39 41 -14 9 -16 21 -12 75 5 57 7 64 30 69 19 4 26 13 28 38 l3 32 -38 -14
c-21 -7 -65 -21 -98 -29 -113 -29 -260 -69 -307 -84 -25 -8 -64 -15 -86 -16
-32 -1 -42 -6 -46 -22 -5 -17 -8 -18 -16 -5 -5 8 -10 25 -10 38 0 19 202 427
482 971 55 108 58 117 58 187 0 70 1 73 28 86 15 7 28 23 30 36 4 24 -3 25
-53 12z m-955 -435 c0 -12 -145 -54 -378 -110 -137 -33 -107 -8 38 32 69 19
163 45 210 58 83 23 130 30 130 20z m887 -941 c-3 -3 -12 -4 -19 -1 -8 3 -5 6
6 6 11 1 17 -2 13 -5z m-67 -19 c-19 -7 -42 -13 -50 -13 -8 0 1 6 20 13 19 7
42 13 50 13 8 0 -1 -6 -20 -13z m-165 -44 c-11 -5 -36 -11 -55 -14 -35 -6 -34
-6 5 8 43 14 84 19 50 6z m-125 -36 c-19 -7 -44 -13 -55 -13 -11 0 -2 6 20 13
52 18 80 17 35 0z m-83 -21 c-3 -3 -12 -4 -19 -1 -8 3 -5 6 6 6 11 1 17 -2 13
-5z m-92 -25 c-33 -11 -109 -33 -170 -49 -121 -33 -233 -65 -400 -115 -193
-57 -260 -74 -268 -66 -16 16 22 29 238 84 121 31 312 81 425 111 207 55 285
70 175 35z"/>
<path d="M3435 5399 c-33 -11 -103 -32 -155 -47 l-95 -28 3 -34 c1 -19 4 -35
5 -36 2 -2 217 60 297 85 42 13 50 4 50 -59 l0 -57 -47 -13 c-27 -7 -113 -33
-193 -59 l-145 -46 -22 -45 c-40 -77 -26 -194 24 -206 24 -6 104 14 376 97
l98 30 -7 187 c-4 117 -12 199 -20 220 -12 30 -16 32 -61 31 -26 0 -75 -10
-108 -20z m172 -101 c-3 -7 -5 -2 -5 12 0 14 2 19 5 13 2 -7 2 -19 0 -25z
m-57 -202 c0 -31 -5 -58 -12 -64 -7 -5 -56 -22 -108 -37 -52 -15 -124 -36
-159 -47 -73 -23 -80 -20 -82 47 l-2 40 -7 -40 -7 -40 -2 47 c-1 53 6 61 64
64 22 1 94 20 160 42 160 54 155 54 155 -12z m67 -58 c-2 -13 -4 -5 -4 17 -1
22 1 32 4 23 2 -10 2 -28 0 -40z"/>
<path d="M2973 5363 c-10 -3 -13 -71 -13 -288 l0 -283 35 11 c29 9 33 13 22
26 -9 11 -9 13 0 8 10 -6 13 53 15 263 l3 270 -25 -1 c-14 0 -31 -3 -37 -6z
m44 -396 c-1 -67 -3 -9 -3 128 0 138 2 192 3 122 2 -71 2 -183 0 -250z"/>
<path d="M1395 5278 c-38 -10 -86 -21 -105 -24 -19 -4 -42 -10 -51 -15 -8 -4
-85 -26 -170 -48 -163 -43 -308 -82 -399 -107 -30 -9 -88 -24 -129 -35 -41
-11 -76 -21 -79 -23 -2 -3 13 -42 33 -88 21 -46 46 -103 57 -128 11 -25 26
-58 33 -75 58 -130 147 -340 165 -385 12 -30 25 -59 29 -65 4 -5 20 -39 34
-75 23 -58 85 -202 130 -300 49 -109 148 -339 219 -505 16 -38 35 -83 43 -100
90 -204 146 -332 150 -345 1 -3 13 -31 28 -64 15 -32 27 -60 27 -63 0 -2 13
-30 29 -63 16 -32 32 -69 36 -82 4 -12 21 -52 37 -88 17 -36 38 -85 48 -110
10 -25 29 -70 43 -100 74 -165 108 -241 132 -299 14 -34 30 -70 34 -80 28 -54
61 -131 61 -142 0 -6 8 -9 20 -6 15 4 21 -1 25 -16 11 -53 14 -59 11 -22 -3
37 -96 265 -241 595 -14 30 -78 181 -144 335 -152 360 -390 918 -431 1015 -18
41 -45 107 -60 145 -15 39 -35 87 -44 108 -16 36 -13 42 15 39 3 -1 6 6 6 14
0 8 -5 14 -10 14 -22 0 5 13 40 21 l38 8 -37 -2 c-41 -3 -50 11 -19 30 13 8
18 19 14 33 -4 14 -1 20 12 20 12 0 16 6 12 20 -3 14 0 20 10 20 12 0 14 8 9
44 -6 35 -4 46 9 53 13 8 14 17 6 52 -8 39 -8 41 11 35 19 -6 20 -3 14 40 -6
37 -4 46 7 46 8 0 18 -7 21 -16 5 -14 9 -14 22 -3 14 11 13 14 -6 29 -24 18
-32 70 -12 85 10 8 12 22 7 49 -7 37 -8 38 -44 32 -20 -3 -41 -6 -48 -6 -6 0
-9 -8 -6 -19 6 -24 -4 -30 -56 -33 -41 -3 -42 -4 -37 -33 20 -107 21 -102 -24
-109 -23 -3 -46 -4 -51 0 -6 3 -9 -6 -7 -23 3 -25 0 -28 -32 -33 -35 -5 -35
-4 -67 60 -47 96 -94 199 -157 346 -51 119 -63 154 -52 154 2 0 48 13 102 29
55 16 205 57 334 90 363 93 434 112 445 122 5 5 17 9 27 9 11 0 18 7 18 18 0
36 -13 39 -85 20z"/>
<path d="M4285 5229 c-144 -17 -319 -87 -428 -171 -20 -17 -35 -34 -32 -39 6
-9 -7 -39 -27 -61 -56 -61 -52 -62 12 -4 123 112 256 180 415 213 109 22 295
13 425 -20 141 -36 150 -38 150 -29 0 25 -201 96 -300 106 -36 4 -81 8 -100
10 -19 2 -71 0 -115 -5z"/>
<path d="M1278 5143 c6 -2 18 -2 25 0 6 3 1 5 -13 5 -14 0 -19 -2 -12 -5z"/>
<path d="M1361 5124 c0 -11 3 -14 6 -6 3 7 2 16 -1 19 -3 4 -6 -2 -5 -13z"/>
<path d="M4810 5105 c0 -8 6 -15 14 -15 45 0 265 -271 340 -418 15 -29 36 -67
47 -85 l20 -32 -5 28 c-24 142 -155 342 -297 453 -95 74 -119 88 -119 69z"/>
<path d="M1255 5079 c-4 -6 -5 -12 -2 -15 2 -3 7 2 10 11 7 17 1 20 -8 4z"/>
<path d="M1292 5045 c-11 -12 -10 -15 3 -15 8 0 15 7 15 15 0 18 -2 18 -18 0z"/>
<path d="M1190 5018 c0 -11 -8 -18 -19 -18 -10 0 -22 -7 -25 -16 -3 -8 -2 -12
4 -9 6 3 10 1 10 -4 0 -6 9 -11 21 -11 16 0 19 4 15 17 -4 9 -2 19 3 22 6 4 6
12 1 21 -8 13 -10 12 -10 -2z"/>
<path d="M1296 5005 c-18 -13 -18 -14 3 -12 11 1 21 7 21 14 0 16 0 16 -24 -2z"/>
<path d="M1266 4972 c-2 -4 4 -14 15 -20 19 -12 19 -11 9 8 -12 22 -16 24 -24
12z"/>
<path d="M1253 4893 c9 -2 25 -2 35 0 9 3 1 5 -18 5 -19 0 -27 -2 -17 -5z"/>
<path d="M1112 4875 c1 -35 13 -80 19 -70 3 6 0 28 -7 50 -7 22 -12 31 -12 20z"/>
<path d="M3709 4853 c-13 -16 -12 -17 4 -4 16 13 21 21 13 21 -2 0 -10 -8 -17
-17z"/>
<path d="M5014 4842 c9 -15 -29 -56 -43 -47 -7 3 -11 -2 -11 -14 0 -10 -6 -22
-12 -25 -10 -4 -10 -8 -2 -11 13 -7 7 -45 -7 -45 -5 0 -9 -8 -10 -17 0 -16 -1
-15 -8 2 -6 14 -9 5 -14 -35 -4 -30 -11 -56 -17 -58 -5 -2 -10 -11 -10 -20 0
-15 -2 -15 -10 -2 -8 12 -10 8 -11 -15 -3 -49 -4 -52 -16 -67 -9 -10 -9 -18
-2 -25 7 -7 3 -12 -13 -16 -25 -7 -57 -67 -35 -67 7 0 6 -4 -3 -10 -8 -5 -10
-10 -3 -10 15 0 -40 -130 -62 -146 -9 -7 -16 -15 -15 -18 1 -4 -1 -24 -5 -46
-5 -30 -10 -37 -22 -33 -11 4 -14 2 -9 -5 4 -7 0 -19 -8 -28 -16 -15 -20 -32
-17 -66 1 -10 -3 -18 -10 -18 -6 0 -9 -8 -6 -20 3 -11 1 -23 -4 -26 -5 -3 -9
3 -9 12 0 17 -14 11 -16 -7 -1 -5 -2 -13 -3 -19 0 -5 -8 -10 -16 -10 -18 0
-20 -17 -2 -23 9 -3 9 -7 -2 -20 -7 -9 -10 -24 -7 -33 4 -12 2 -15 -9 -10 -8
3 -14 0 -12 -7 1 -7 -7 -11 -18 -9 -14 2 -16 0 -7 -6 10 -7 11 -37 2 -62 -2
-3 -2 -9 -1 -14 1 -5 -6 -5 -16 -2 -14 6 -15 4 -6 -5 16 -16 -6 -39 -27 -29
-86 40 -283 143 -355 185 -100 59 -136 78 -346 188 -80 43 -155 77 -167 77
-38 0 -54 42 -62 158 -6 98 -7 101 -8 34 -1 -43 -6 -71 -12 -67 -10 6 -7 -56
4 -73 3 -6 1 -14 -5 -17 -11 -7 11 -23 99 -71 58 -31 95 -53 198 -115 45 -27
84 -49 87 -49 2 0 102 -56 221 -125 120 -69 219 -125 221 -125 3 0 45 -25 95
-55 50 -30 93 -55 95 -55 2 0 31 -16 65 -36 60 -35 62 -35 103 -21 48 16 55
32 14 33 -44 2 -54 20 -18 32 59 21 177 105 252 181 247 250 307 604 156 921
-16 33 -83 127 -98 136 -8 4 -9 3 -5 -4z"/>
<path d="M1125 4730 c-3 -6 1 -7 9 -4 18 7 21 14 7 14 -6 0 -13 -4 -16 -10z"/>
<path d="M998 4653 c7 -3 16 -2 19 1 4 3 -2 6 -13 5 -11 0 -14 -3 -6 -6z"/>
<path d="M1186 4652 c-2 -4 -1 -14 5 -22 7 -12 9 -10 9 8 0 23 -5 28 -14 14z"/>
<path d="M2926 4605 c-10 -8 -23 -12 -29 -8 -6 3 -7 1 -4 -4 4 -6 1 -16 -7
-22 -10 -9 -15 -8 -20 4 -3 9 -2 13 4 10 6 -3 10 -1 10 6 0 6 -8 9 -17 6 -10
-2 -46 -13 -80 -22 -35 -10 -63 -24 -63 -31 0 -7 -10 -34 -21 -61 -12 -26 -25
-61 -30 -78 -9 -36 -36 -112 -49 -140 -5 -11 -23 -63 -41 -115 -17 -52 -35
-99 -40 -104 -5 -6 -9 -19 -9 -31 0 -11 -7 -31 -16 -43 -8 -12 -13 -22 -9 -22
3 0 -2 -17 -11 -37 -8 -21 -17 -45 -19 -53 -2 -8 -13 -40 -25 -70 -12 -30 -27
-73 -34 -95 -7 -22 -22 -62 -33 -90 -24 -61 -43 -114 -48 -138 -2 -9 -7 -23
-12 -30 -4 -6 -13 -28 -19 -47 -6 -19 -16 -34 -22 -33 -16 4 -15 -12 1 -25 22
-18 54 4 70 50 9 24 31 86 50 138 19 52 67 185 106 295 169 464 243 671 248
687 5 17 33 31 98 47 23 6 54 24 70 41 31 32 31 38 1 15z"/>
<path d="M866 4602 c-6 -10 30 -9 40 1 4 4 -2 7 -14 7 -11 0 -23 -4 -26 -8z"/>
<path d="M1156 4555 c4 -8 8 -15 10 -15 2 0 4 7 4 15 0 8 -4 15 -10 15 -5 0
-7 -7 -4 -15z"/>
<path d="M1095 4350 c-3 -5 -1 -10 4 -10 6 0 11 5 11 10 0 6 -2 10 -4 10 -3 0
-8 -4 -11 -10z"/>
<path d="M1070 4280 c0 -16 4 -30 8 -30 5 0 7 14 4 30 -2 17 -6 30 -8 30 -2 0
-4 -13 -4 -30z"/>
<path d="M7198 4205 c-3 -3 -31 -12 -64 -21 -62 -16 -90 -34 -100 -66 -3 -10
-26 -55 -51 -99 -37 -66 -47 -78 -59 -68 -8 7 -14 7 -14 1 0 -5 7 -16 16 -23
21 -17 33 -2 104 125 l53 95 53 12 c30 7 61 20 70 31 15 15 7 28 -8 13z"/>
<path d="M1032 4150 c0 -14 2 -19 5 -12 2 6 2 18 0 25 -3 6 -5 1 -5 -13z"/>
<path d="M6770 4090 c-14 -4 -51 -15 -82 -25 -32 -9 -58 -19 -58 -21 0 -5 80
-116 89 -124 21 -18 91 -122 91 -135 0 -8 -29 -64 -64 -123 -103 -175 -154
-267 -150 -271 6 -7 43 30 57 58 7 14 53 95 101 179 48 84 86 159 83 167 -3 7
-32 48 -64 91 -32 42 -70 93 -85 114 l-27 37 57 13 c69 15 103 30 96 41 -6 10
-10 10 -44 -1z"/>
<path d="M6440 3998 c-36 -11 -81 -23 -100 -28 -47 -10 -194 -51 -197 -54 -2
-1 -6 -150 -10 -331 -4 -218 -3 -326 4 -322 6 4 12 128 16 318 4 172 9 314 11
316 2 2 73 22 157 44 97 25 161 47 174 59 11 11 17 19 15 19 -3 -1 -34 -10
-70 -21z"/>
<path d="M6880 3990 c0 -5 5 -10 11 -10 5 0 7 5 4 10 -3 6 -8 10 -11 10 -2 0
-4 -4 -4 -10z"/>
<path d="M3469 3892 c-17 -38 -28 -63 -78 -175 -17 -37 -28 -67 -24 -67 3 0 1
-6 -5 -12 -5 -7 -22 -42 -37 -78 -15 -36 -35 -83 -46 -105 -21 -48 -50 -118
-50 -125 -1 -3 -7 -16 -14 -30 -20 -37 -57 -119 -114 -258 -29 -68 -56 -131
-61 -140 -13 -27 -40 -89 -40 -96 0 -3 -11 -29 -24 -58 -69 -152 -81 -180
-126 -293 -13 -32 -71 -158 -86 -187 -9 -16 -12 -28 -8 -28 3 0 -1 -11 -9 -24
-20 -30 -31 -89 -23 -121 6 -25 50 -59 149 -113 57 -32 57 -32 57 -9 0 18 -13
29 -69 56 -68 32 -91 58 -91 102 0 11 59 155 131 322 73 166 144 331 159 367
15 36 114 265 220 510 275 637 252 578 230 590 -25 13 -23 15 -41 -28z"/>
<path d="M5953 3895 c-18 -13 -20 -20 -12 -52 5 -21 9 -111 9 -200 l0 -163 30
0 c30 0 30 0 30 58 0 31 3 128 7 215 l6 157 -24 0 c-14 0 -34 -7 -46 -15z m44
-142 c-4 -75 -7 -162 -7 -195 0 -32 -4 -58 -9 -58 -13 0 -19 373 -6 382 25 19
28 2 22 -129z"/>
<path d="M3610 3853 c1 -10 126 -98 210 -148 36 -21 92 -55 125 -76 33 -20 98
-58 145 -85 47 -26 111 -65 142 -86 31 -21 61 -38 67 -38 16 0 22 -33 12 -68
-12 -40 2 -42 25 -3 14 24 26 30 67 35 l50 7 -29 18 c-16 9 -59 34 -95 54 -37
20 -136 75 -220 123 -85 48 -174 98 -199 112 -25 13 -75 42 -112 63 -36 22
-69 39 -72 39 -3 0 -28 14 -54 30 -51 31 -62 35 -62 23z"/>
<path d="M5740 3810 l-65 -17 -5 -329 c-3 -181 -4 -331 -3 -333 1 -2 7 7 12
21 5 13 11 159 13 323 l3 299 55 14 c30 7 62 20 70 28 18 18 8 17 -80 -6z"/>
<path d="M6620 3781 c0 -22 5 -43 10 -46 16 -10 29 37 17 63 -16 34 -27 26
-27 -17z"/>
<path d="M6430 3749 c-36 -11 -80 -22 -97 -25 -18 -4 -33 -10 -33 -14 0 -15
25 -17 65 -5 22 7 59 18 81 24 23 6 47 18 54 26 15 18 12 18 -70 -6z"/>
<path d="M5450 3728 c-58 -16 -121 -33 -140 -38 -19 -4 -59 -14 -87 -21 l-53
-14 0 -330 c1 -245 3 -325 12 -311 7 12 12 127 15 320 l5 301 36 11 c20 7 93
26 162 44 69 18 134 41 145 52 11 10 17 18 15 17 -3 0 -52 -14 -110 -31z"/>
<path d="M7080 3731 c0 -5 5 -13 10 -16 6 -3 10 -2 10 4 0 5 -4 13 -10 16 -5
3 -10 2 -10 -4z"/>
<path d="M6910 3680 c0 -12 105 -156 121 -166 24 -15 3 28 -47 96 -55 74 -74
92 -74 70z"/>
<path d="M4990 3553 c-30 -23 -93 -62 -139 -85 -79 -41 -87 -43 -165 -41 -44
1 -92 3 -106 5 -23 3 -24 0 -27 -55 -1 -32 -10 -74 -20 -93 -10 -20 -160 -230
-332 -467 -173 -238 -416 -571 -539 -742 -124 -170 -234 -321 -246 -334 -38
-43 -93 -61 -187 -61 -102 0 -92 8 -177 -145 -69 -124 -87 -184 -79 -255 18
-147 171 -302 324 -325 99 -15 241 52 313 150 20 27 207 351 415 720 207 369
397 698 421 732 108 152 294 267 492 303 88 16 267 13 353 -5 102 -21 99 -22
99 30 0 51 -5 53 -69 30 -61 -21 -159 -27 -201 -13 -23 9 -41 25 -53 48 -17
32 -18 57 -12 320 4 157 3 294 -2 306 -8 20 -10 19 -63 -23z m48 -297 c-3
-299 -3 -305 19 -334 l21 -29 -83 -6 c-102 -7 -243 -52 -335 -107 -85 -50
-180 -137 -234 -214 -24 -33 -214 -362 -421 -731 -208 -369 -393 -691 -411
-716 -71 -98 -211 -161 -310 -139 -143 32 -272 167 -290 303 -9 62 15 133 89
262 l63 110 100 5 c107 6 141 18 185 67 14 15 168 224 341 463 173 239 420
579 548 755 128 176 236 331 241 344 6 13 11 48 12 76 l2 52 40 -10 c103 -23
236 17 365 112 30 22 56 40 58 41 2 0 2 -137 0 -304z m332 -371 c0 -23 -3 -25
-27 -19 -52 13 -47 21 25 43 1 1 2 -10 2 -24z"/>
<path d="M5510 3491 c-18 -10 -162 -46 -172 -43 -13 4 -9 -16 5 -21 19 -6 178
40 196 58 13 13 13 15 1 15 -8 0 -22 -4 -30 -9z"/>
<path d="M6385 3470 c-69 -19 -95 -30 -82 -35 23 -9 155 25 181 47 27 22 21
22 -99 -12z"/>
<path d="M7020 3391 c-35 -10 -41 -51 -8 -51 29 0 48 17 48 42 0 19 -2 20 -40
9z"/>
<path d="M4290 3370 c0 -11 2 -20 4 -20 2 0 6 9 9 20 3 11 1 20 -4 20 -5 0 -9
-9 -9 -20z"/>
<path d="M5985 3363 c-11 -2 -40 -11 -65 -19 -25 -7 -57 -15 -72 -16 -29 -2
-36 -12 -18 -23 16 -10 178 36 184 51 6 14 4 15 -29 7z"/>
<path d="M7175 3349 c-47 -27 -65 -52 -65 -90 0 -43 9 -51 65 -59 31 -4 40 -9
40 -25 0 -22 -33 -34 -44 -16 -5 8 -16 8 -39 0 -38 -13 -40 -22 -10 -43 31
-22 70 -20 112 5 36 21 48 36 21 26 -11 -5 -11 0 3 27 9 19 23 31 30 29 17 -7
15 8 -4 35 -11 16 -25 22 -55 22 -26 0 -42 5 -45 15 -4 8 -11 12 -16 9 -6 -4
-8 2 -6 12 2 11 11 17 19 16 73 -18 113 -7 93 25 -13 21 -70 28 -99 12z"/>
<path d="M7025 3310 l-30 -5 -3 -124 -3 -124 32 7 c18 3 34 8 36 10 2 2 2 57
1 122 l-3 119 -30 -5z m22 -172 c-2 -29 -3 -6 -3 52 0 58 1 81 3 53 2 -29 2
-77 0 -105z"/>
<path d="M4261 3263 c-7 -12 -10 -14 -11 -4 0 23 -14 2 -15 -22 0 -12 -6 -21
-12 -19 -7 1 -13 -8 -13 -19 0 -18 7 -12 36 25 20 26 34 50 31 52 -3 3 -10 -3
-16 -13z"/>
<path d="M6530 3266 l-35 -11 0 -158 0 -158 40 6 c22 4 61 13 88 21 42 14 47
19 47 45 0 32 0 32 -52 20 -24 -6 -40 -5 -47 2 -15 15 -14 210 0 224 17 17 -3
21 -41 9z"/>
<path d="M6873 3273 c-9 -3 -13 -32 -13 -94 0 -83 -1 -89 -25 -105 -42 -28
-55 -6 -55 92 0 46 -2 84 -4 84 -1 0 -17 -5 -35 -11 l-31 -11 0 -83 c0 -46 4
-95 10 -109 13 -35 53 -43 99 -21 20 10 42 17 50 16 25 -5 62 9 55 20 -11 18
-4 202 8 216 8 10 4 13 -18 12 -16 0 -35 -3 -41 -6z m-106 -150 c-2 -21 -4 -6
-4 32 0 39 2 55 4 38 2 -18 2 -50 0 -70z"/>
<path d="M5492 3219 c-39 -11 -44 -23 -40 -77 l3 -41 48 30 c43 26 48 33 45
61 -3 36 -11 40 -56 27z m38 -34 c0 -8 -13 -21 -30 -30 -29 -15 -30 -15 -30 9
0 13 6 27 13 29 25 10 47 7 47 -8z"/>
<path d="M4170 3139 c0 -5 5 -7 10 -4 6 3 10 8 10 11 0 2 -4 4 -10 4 -5 0 -10
-5 -10 -11z"/>
<path d="M6175 3096 c-18 -15 -32 -20 -36 -14 -5 7 -16 7 -35 1 l-29 -10 -3
-122 -3 -122 28 7 c43 10 43 10 41 97 l-2 82 -6 -80 -6 -80 -2 86 c-1 55 2 89
10 97 15 15 32 16 22 1 -4 -7 1 -7 16 1 41 22 50 8 50 -85 0 -88 2 -91 45 -79
18 4 20 12 17 71 -2 36 0 69 6 75 13 13 3 54 -18 73 -29 26 -62 27 -95 1z"/>
<path d="M5965 3044 c-22 -7 -53 -14 -68 -14 -61 0 -118 -51 -138 -122 -26
-97 59 -173 137 -122 13 9 40 18 60 19 19 1 39 6 45 12 5 5 8 59 7 125 l-3
116 -40 -14z m32 -171 c-2 -32 -3 -8 -3 52 0 61 1 87 3 58 2 -29 2 -78 0 -110z
m-153 86 c-20 -23 -17 -23 28 0 25 13 30 12 48 -4 41 -37 7 -115 -51 -115 -32
0 -44 13 -54 58 -6 27 -3 38 16 58 28 30 39 32 13 3z m66 -149 c0 -5 -5 -10
-11 -10 -5 0 -7 5 -4 10 3 6 8 10 11 10 2 0 4 -4 4 -10z"/>
<path d="M5584 3035 c-39 -17 -70 -56 -79 -96 -10 -43 15 -76 72 -92 59 -17
77 -51 37 -69 -22 -10 -28 -9 -39 5 -19 26 -75 12 -75 -19 0 -50 70 -80 123
-53 30 16 77 60 77 73 0 6 -5 3 -11 -6 -5 -10 -20 -23 -32 -29 -22 -12 -20
-10 43 68 6 7 10 23 10 37 0 30 -29 51 -83 60 -21 4 -41 14 -44 21 -3 8 -9 12
-14 9 -18 -11 -8 23 11 41 17 16 20 16 15 3 -5 -13 -2 -15 15 -11 12 3 25 1
29 -6 10 -15 58 -4 65 15 8 22 -4 45 -31 55 -32 12 -51 10 -89 -6z"/>
<path d="M5020 2753 c-165 -21 -346 -121 -448 -246 -29 -36 -221 -364 -451
-772 -444 -784 -445 -786 -577 -851 -187 -93 -400 -58 -550 91 -127 126 -175
304 -124 466 11 35 56 128 100 207 44 79 80 146 80 151 0 4 -42 31 -92 59
-110 61 -86 76 -201 -132 -100 -182 -119 -240 -125 -383 -11 -274 107 -492
343 -636 99 -60 194 -88 320 -94 142 -6 230 12 355 73 75 37 109 62 170 123
87 87 67 53 560 930 378 671 385 681 526 748 78 37 81 38 199 38 117 0 122 -1
195 -36 41 -20 156 -82 255 -138 111 -62 190 -101 208 -101 43 0 83 25 102 66
14 31 15 43 6 75 -14 46 -19 49 -238 173 -204 115 -278 150 -356 170 -62 16
-201 27 -257 19z"/>
<path d="M3112 1864 c3 -17 105 -80 114 -72 12 12 -21 57 -52 72 -44 21 -66
21 -62 0z"/>
</g>
</svg>
